<svg id="Lager_1" data-name="Lager 1" xmlns="http://www.w3.org/2000/svg" viewBox="0 0 302.4 298.96"><defs><style>.cls-1{fill:#020202;}.cls-2{fill:#67c0b6;}.cls-3{fill:#fff;}.cls-4{fill:#896829;}.cls-5{fill:#684e1e;}.cls-6{fill:#483518;}.cls-7{fill:#271e12;}.cls-8{fill:#49b8a5;}.cls-9{fill:#2ab29a;}.cls-10{fill:#4ab7a2;}.cls-11{fill:#69c1b6;}.cls-12{fill:#4ab8a4;}.cls-13{fill:#8b6726;}.cls-14{fill:#16182e;}.cls-15{fill:#251f13;}.cls-16{fill:#483617;}.cls-17{fill:#0e4036;}.cls-18{fill:#2fb295;}.cls-19{fill:#1f8a78;}.cls-20{fill:#6bc1b3;}.cls-21{fill:#261e12;}.cls-22{fill:#05251f;}.cls-23{fill:#59c0ce;}.cls-24{fill:#32292e;}.cls-25{fill:#151a15;}.cls-26{fill:#208977;}</style></defs><ellipse class="cls-1" cx="151.2" cy="149.48" rx="151.2" ry="149.48"/><circle class="cls-2" cx="151.02" cy="148.96" r="145.52"/><circle cx="151.84" cy="150.3" r="124.11"/><circle class="cls-3" cx="151.84" cy="150.3" r="118.25"/><rect class="cls-4" x="161.22" y="157.07" width="6.88" height="6.88"/><rect class="cls-5" x="168.11" y="150.18" width="6.88" height="6.88"/><rect class="cls-4" x="174.99" y="143.3" width="6.88" height="6.88"/><rect class="cls-5" x="181.87" y="136.42" width="6.88" height="6.88"/><rect class="cls-4" x="188.76" y="129.54" width="6.88" height="6.88"/><rect class="cls-5" x="195.64" y="122.65" width="6.88" height="6.88"/><rect class="cls-4" x="202.52" y="115.77" width="6.88" height="6.88"/><rect class="cls-5" x="209.4" y="108.89" width="6.88" height="6.88"/><rect class="cls-6" x="161.22" y="150.18" width="6.88" height="6.88"/><rect class="cls-6" x="168.11" y="143.3" width="6.88" height="6.88"/><rect class="cls-6" x="174.99" y="136.42" width="6.88" height="6.88"/><rect class="cls-6" x="181.87" y="129.54" width="6.88" height="6.88"/><rect class="cls-6" x="188.76" y="122.65" width="6.88" height="6.88"/><rect class="cls-6" x="195.64" y="115.77" width="6.88" height="6.88"/><rect class="cls-6" x="202.52" y="108.89" width="6.88" height="6.88"/><rect class="cls-6" x="209.4" y="102" width="6.88" height="6.88"/><rect class="cls-7" x="168.11" y="157.07" width="6.88" height="6.88"/><rect class="cls-7" x="174.99" y="150.18" width="6.88" height="6.88"/><rect class="cls-7" x="181.87" y="143.3" width="6.88" height="6.88"/><rect class="cls-7" x="188.76" y="136.42" width="6.88" height="6.88"/><rect class="cls-7" x="195.64" y="129.54" width="6.88" height="6.88"/><rect class="cls-7" x="202.52" y="122.65" width="6.88" height="6.88"/><rect class="cls-7" x="209.4" y="115.77" width="6.88" height="6.88"/><rect class="cls-7" x="216.29" y="108.89" width="6.88" height="6.88"/><rect class="cls-6" x="154.34" y="157.07" width="6.88" height="6.88"/><rect class="cls-7" x="161.22" y="163.95" width="6.88" height="6.88"/><rect class="cls-7" x="154.34" y="163.95" width="6.88" height="6.88"/><rect class="cls-8" x="216.29" y="102" width="6.88" height="6.88"/><rect class="cls-9" x="209.4" y="95.12" width="6.88" height="6.88"/><rect class="cls-9" x="216.29" y="95.12" width="6.88" height="6.88"/><rect class="cls-9" x="417.64" y="317.93" width="6.88" height="6.88" transform="translate(547.98 -315.64) rotate(90)"/><rect class="cls-9" x="417.64" y="324.81" width="6.88" height="6.88" transform="translate(554.86 -308.76) rotate(90)"/><rect class="cls-8" x="230.05" y="108.89" width="6.88" height="6.88"/><rect class="cls-9" x="424.53" y="331.69" width="6.88" height="6.88" transform="translate(568.63 -308.76) rotate(90)"/><rect class="cls-9" x="424.53" y="338.58" width="6.88" height="6.88" transform="translate(575.51 -301.88) rotate(90)"/><rect class="cls-10" x="424.53" y="345.46" width="6.88" height="6.88" transform="translate(582.4 -294.99) rotate(90)"/><rect class="cls-11" x="230.05" y="136.42" width="6.88" height="6.88"/><rect class="cls-12" x="209.4" y="88.24" width="6.88" height="6.88"/><rect class="cls-9" x="397" y="304.16" width="6.88" height="6.88" transform="translate(606.4 399.28) rotate(-180)"/><rect class="cls-9" x="390.11" y="304.16" width="6.88" height="6.88" transform="translate(592.63 399.28) rotate(-180)"/><rect class="cls-10" x="383.23" y="304.16" width="6.88" height="6.88" transform="translate(499.8 -294.99) rotate(90)"/><rect class="cls-11" x="181.87" y="88.24" width="6.88" height="6.88"/><rect class="cls-13" x="223.17" y="95.12" width="6.88" height="6.88"/><rect class="cls-14" x="223.17" y="115.77" width="6.88" height="6.88"/><rect class="cls-14" x="223.17" y="122.65" width="6.88" height="6.88"/><rect class="cls-14" x="223.17" y="129.38" width="6.88" height="6.88"/><rect class="cls-14" x="223.17" y="136.26" width="6.88" height="6.88"/><rect class="cls-14" x="230.05" y="143.3" width="6.88" height="6.88"/><rect class="cls-14" x="236.94" y="136.42" width="6.88" height="6.88"/><rect class="cls-14" x="236.94" y="108.97" width="6.88" height="6.88"/><rect class="cls-14" x="236.94" y="115.85" width="6.88" height="6.88"/><rect class="cls-14" x="236.94" y="122.57" width="6.88" height="6.88"/><rect class="cls-14" x="236.94" y="129.46" width="6.88" height="6.88"/><rect class="cls-14" x="230.05" y="101.92" width="6.88" height="6.88"/><rect class="cls-15" x="230.05" y="88.32" width="6.88" height="6.88"/><rect class="cls-15" x="230.05" y="88.32" width="6.88" height="6.88"/><rect class="cls-15" x="230.05" y="95.2" width="6.88" height="6.88"/><rect class="cls-16" x="223.17" y="88.24" width="6.88" height="6.88"/><rect class="cls-17" x="216.29" y="88.24" width="6.88" height="6.88"/><rect class="cls-17" x="209.4" y="81.35" width="6.88" height="6.88"/><rect class="cls-17" x="202.52" y="81.35" width="6.88" height="6.88"/><rect class="cls-17" x="195.64" y="81.35" width="6.88" height="6.88"/><rect class="cls-17" x="188.76" y="81.35" width="6.88" height="6.88"/><rect class="cls-17" x="181.87" y="81.35" width="6.88" height="6.88"/><rect class="cls-17" x="174.99" y="88.24" width="6.88" height="6.88"/><rect class="cls-17" x="181.87" y="95.12" width="6.88" height="6.88"/><rect class="cls-14" x="397" y="311.04" width="6.88" height="6.88" transform="translate(520.45 -301.88) rotate(90)"/><rect class="cls-14" x="390.11" y="311.04" width="6.88" height="6.88" transform="translate(513.57 -294.99) rotate(90)"/><rect class="cls-14" x="383.23" y="311.04" width="6.88" height="6.88" transform="translate(506.68 -288.11) rotate(90)"/><rect class="cls-4" x="322.82" y="375.24" width="6.88" height="6.88" transform="translate(-292.37 427.21) rotate(-81.2)"/><rect class="cls-5" x="317.07" y="367.38" width="6.88" height="6.88" transform="translate(-289.48 414.87) rotate(-81.2)"/><rect class="cls-4" x="311.32" y="359.53" width="6.88" height="6.88" transform="translate(-286.58 402.54) rotate(-81.2)"/><rect class="cls-5" x="306.27" y="351.78" width="6.88" height="6.88" transform="translate(-283.2 390.99) rotate(-81.2)"/><rect class="cls-5" x="300.52" y="343.92" width="6.88" height="6.88" transform="translate(-280.31 378.65) rotate(-81.2)"/><rect class="cls-4" x="294.63" y="336.05" width="6.88" height="6.88" transform="translate(-277.51 366.16) rotate(-81.2)"/><rect class="cls-5" x="288.88" y="328.19" width="6.88" height="6.88" transform="translate(-274.62 353.83) rotate(-81.2)"/><rect class="cls-15" x="329.62" y="376.29" width="6.88" height="6.88" transform="translate(-287.65 434.82) rotate(-81.2)"/><rect class="cls-15" x="328.57" y="383.09" width="6.88" height="6.88" transform="translate(-295.26 439.54) rotate(-81.2)"/><rect class="cls-15" x="323.87" y="368.44" width="6.88" height="6.88" transform="translate(-284.76 422.49) rotate(-81.2)"/><rect class="cls-15" x="318.12" y="360.58" width="6.88" height="6.88" transform="translate(-281.86 410.15) rotate(-81.2)"/><rect class="cls-15" x="313.07" y="352.83" width="6.88" height="6.88" transform="translate(-278.48 398.6) rotate(-81.2)"/><rect class="cls-15" x="307.32" y="344.98" width="6.88" height="6.88" transform="translate(-275.59 386.27) rotate(-81.2)"/><rect class="cls-15" x="301.57" y="337.12" width="6.88" height="6.88" transform="translate(-272.7 373.93) rotate(-81.2)"/><rect class="cls-15" x="295.68" y="329.24" width="6.88" height="6.88" transform="translate(-269.9 361.44) rotate(-81.2)"/><rect class="cls-15" x="289.94" y="321.39" width="6.88" height="6.88" transform="translate(-267.01 349.11) rotate(-81.2)"/><rect class="cls-16" x="282.08" y="327.14" width="6.88" height="6.88" transform="translate(-279.34 346.21) rotate(-81.2)"/><rect class="cls-16" x="287.83" y="334.99" width="6.88" height="6.88" transform="translate(-282.23 358.54) rotate(-81.2)"/><rect class="cls-16" x="293.72" y="342.87" width="6.88" height="6.88" transform="translate(-285.03 371.04) rotate(-81.2)"/><rect class="cls-16" x="299.47" y="350.73" width="6.88" height="6.88" transform="translate(-287.92 383.37) rotate(-81.2)"/><rect class="cls-16" x="305.22" y="358.58" width="6.88" height="6.88" transform="translate(-290.82 395.7) rotate(-81.2)"/><rect class="cls-16" x="310.27" y="366.33" width="6.88" height="6.88" transform="translate(-294.2 407.26) rotate(-81.2)"/><rect class="cls-16" x="316.02" y="374.18" width="6.88" height="6.88" transform="translate(-297.09 419.59) rotate(-81.2)"/><rect class="cls-16" x="321.76" y="382.04" width="6.88" height="6.88" transform="translate(-299.98 431.93) rotate(-81.2)"/><rect class="cls-18" x="283.13" y="320.34" width="6.88" height="6.88" transform="translate(-271.73 341.49) rotate(-81.2)"/><rect class="cls-19" x="276.33" y="319.28" width="6.88" height="6.88" transform="translate(-276.44 333.88) rotate(-81.2)"/><rect class="cls-19" x="284.19" y="313.53" width="6.88" height="6.88" transform="translate(-264.11 336.77) rotate(-81.2)"/><rect class="cls-18" x="275.28" y="326.08" width="6.88" height="6.88" transform="translate(-284.06 338.6) rotate(-81.2)"/><rect class="cls-18" x="290.99" y="314.59" width="6.88" height="6.88" transform="translate(-259.39 344.39) rotate(-81.2)"/><rect class="cls-18" x="285.24" y="306.73" width="6.88" height="6.88" transform="translate(-256.5 332.05) rotate(-81.2)"/><rect class="cls-18" x="292.04" y="307.79" width="6.88" height="6.88" transform="translate(-251.78 339.67) rotate(-81.2)"/><rect class="cls-18" x="277.39" y="312.48" width="6.88" height="6.88" transform="translate(-268.83 329.16) rotate(-81.2)"/><rect class="cls-18" x="269.53" y="318.23" width="6.88" height="6.88" transform="translate(-281.16 326.26) rotate(-81.2)"/><rect class="cls-18" x="268.48" y="325.03" width="6.88" height="6.88" transform="translate(-288.78 330.98) rotate(-81.2)"/><rect class="cls-18" x="267.42" y="331.83" width="6.88" height="6.88" transform="translate(-296.39 335.7) rotate(-81.2)"/><rect class="cls-18" x="261.68" y="323.98" width="6.88" height="6.88" transform="translate(-293.5 323.37) rotate(-81.2)"/><rect class="cls-10" x="274.23" y="332.89" width="6.88" height="6.88" transform="translate(-291.67 343.32) rotate(-81.2)"/><rect class="cls-10" x="262.73" y="317.17" width="6.88" height="6.88" transform="translate(-285.88 318.65) rotate(-81.2)"/><rect class="cls-20" x="273.17" y="339.69" width="6.88" height="6.88" transform="translate(-299.29 348.04) rotate(-81.2)"/><rect class="cls-20" x="266.37" y="338.63" width="6.88" height="6.88" transform="translate(-304.01 340.42) rotate(-81.2)"/><rect class="cls-20" x="260.77" y="330.8" width="6.88" height="6.88" transform="translate(-301.01 328.26) rotate(-81.2)"/><rect class="cls-20" x="254.87" y="322.92" width="6.88" height="6.88" transform="translate(-298.22 315.76) rotate(-81.2)"/><rect class="cls-20" x="255.93" y="316.12" width="6.88" height="6.88" transform="translate(-290.6 311.04) rotate(-81.2)"/><rect class="cls-16" x="270.58" y="311.43" width="6.88" height="6.88" transform="translate(-273.55 321.54) rotate(-81.2)"/><rect class="cls-21" x="278.44" y="305.68" width="6.88" height="6.88" transform="translate(-261.22 324.44) rotate(-81.2)"/><rect class="cls-5" x="271.64" y="304.62" width="6.88" height="6.88" transform="translate(-265.94 316.82) rotate(-81.2)"/><rect class="cls-17" x="263.78" y="310.37" width="6.88" height="6.88" transform="translate(-278.27 313.93) rotate(-81.2)"/><rect class="cls-17" x="256.98" y="309.32" width="6.88" height="6.88" transform="translate(-282.99 306.32) rotate(-81.2)"/><rect class="cls-17" x="248.98" y="315.04" width="6.88" height="6.88" transform="translate(-295.43 303.25) rotate(-81.2)"/><rect class="cls-17" x="247.92" y="321.85" width="6.88" height="6.88" transform="translate(-303.04 307.97) rotate(-81.2)"/><rect class="cls-17" x="253.9" y="329.74" width="6.88" height="6.88" transform="translate(-305.78 320.56) rotate(-81.2)"/><rect class="cls-17" x="259.57" y="337.58" width="6.88" height="6.88" transform="translate(-308.73 332.81) rotate(-81.2)"/><rect class="cls-17" x="265.32" y="345.44" width="6.88" height="6.88" transform="translate(-311.62 345.14) rotate(-81.2)"/><rect class="cls-22" x="272.12" y="346.49" width="6.88" height="6.88" transform="translate(-306.9 352.76) rotate(-81.2)"/><rect class="cls-22" x="281.03" y="333.94" width="6.88" height="6.88" transform="translate(-286.95 350.93) rotate(-81.2)"/><rect class="cls-22" x="279.97" y="340.74" width="6.88" height="6.88" transform="translate(-294.57 355.65) rotate(-81.2)"/><rect class="cls-22" x="297.93" y="315.66" width="6.88" height="6.88" transform="translate(-254.57 352.16) rotate(-81.2)"/><rect class="cls-22" x="298.99" y="308.86" width="6.88" height="6.88" transform="translate(-246.96 347.44) rotate(-81.2)"/><rect class="cls-22" x="286.3" y="299.93" width="6.88" height="6.88" transform="translate(-248.88 327.33) rotate(-81.2)"/><rect class="cls-22" x="293.1" y="300.98" width="6.88" height="6.88" transform="translate(-244.16 334.95) rotate(-81.2)"/><path class="cls-23" d="M303.75,298.41" transform="translate(-194.47 -215.92)"/><rect class="cls-24" x="98.06" y="194.01" width="11.21" height="11.21"/><rect class="cls-24" x="98.06" y="184.15" width="11.21" height="11.21"/><rect class="cls-24" x="98.06" y="172.93" width="11.21" height="11.21"/><rect class="cls-24" x="98.06" y="161.72" width="11.21" height="11.21"/><rect class="cls-24" x="98.06" y="150.51" width="11.21" height="11.21"/><rect class="cls-24" x="98.06" y="139.29" width="11.21" height="11.21"/><rect class="cls-24" x="109.28" y="128.08" width="11.21" height="11.21"/><rect class="cls-24" x="314.96" y="332.79" width="11.21" height="11.21" transform="translate(464.49 -198.1) rotate(90)"/><rect class="cls-24" x="324.82" y="332.79" width="11.21" height="11.21" transform="translate(474.35 -207.96) rotate(90)"/><rect class="cls-24" x="336.04" y="332.79" width="11.21" height="11.21" transform="translate(485.56 -219.18) rotate(90)"/><rect class="cls-24" x="347.25" y="332.79" width="11.21" height="11.21" transform="translate(496.78 -230.39) rotate(90)"/><rect class="cls-24" x="358.47" y="332.79" width="11.21" height="11.21" transform="translate(507.99 -241.61) rotate(90)"/><rect class="cls-24" x="369.68" y="332.79" width="11.21" height="11.21" transform="translate(519.21 -252.82) rotate(90)"/><rect class="cls-24" x="186.42" y="128.08" width="11.21" height="11.21"/><rect class="cls-25" x="392.11" y="354.54" width="11.21" height="11.21" transform="translate(600.96 504.36) rotate(-180)"/><rect class="cls-25" x="392.11" y="364.39" width="11.21" height="11.21" transform="translate(600.96 524.08) rotate(-180)"/><rect class="cls-25" x="392.11" y="375.61" width="11.21" height="11.21" transform="translate(600.96 546.51) rotate(-180)"/><rect class="cls-25" x="392.11" y="386.82" width="11.21" height="11.21" transform="translate(600.96 568.94) rotate(-180)"/><rect class="cls-25" x="392.11" y="398.04" width="11.21" height="11.21" transform="translate(600.96 591.37) rotate(-180)"/><rect class="cls-25" x="392.11" y="409.25" width="11.21" height="11.21" transform="translate(600.96 613.8) rotate(-180)"/><rect class="cls-24" x="109.28" y="205.22" width="11.21" height="11.21"/><rect class="cls-25" x="120.49" y="205.22" width="11.21" height="11.21"/><rect class="cls-25" x="380.9" y="420.47" width="11.21" height="11.21" transform="translate(578.53 636.23) rotate(180)"/><rect class="cls-25" x="369.68" y="420.47" width="11.21" height="11.21" transform="translate(556.1 636.23) rotate(180)"/><rect class="cls-25" x="120.49" y="193.33" width="11.21" height="13.25"/><rect class="cls-25" x="131.7" y="193.33" width="54.72" height="11.21"/><rect class="cls-24" x="120.49" y="182.11" width="11.21" height="11.21"/><rect class="cls-24" x="120.49" y="170.9" width="11.21" height="11.21"/><rect class="cls-24" x="131.7" y="159.68" width="11.21" height="11.21"/><rect class="cls-24" x="142.92" y="159.68" width="11.21" height="11.21"/><rect class="cls-24" x="154.13" y="159.68" width="11.21" height="11.21"/><rect class="cls-25" x="131.7" y="182.11" width="54.72" height="11.21"/><rect class="cls-25" x="131.7" y="170.9" width="54.72" height="11.21"/><rect class="cls-25" x="164.67" y="159.68" width="11.21" height="11.21"/><rect class="cls-2" x="109.28" y="139.29" width="11.21" height="66.27"/><rect class="cls-3" x="131.7" y="137.26" width="11.21" height="11.21"/><rect class="cls-2" x="120.49" y="159.68" width="11.21" height="11.21"/><rect class="cls-2" x="154.13" y="128.08" width="11.21" height="31.61"/><rect class="cls-3" x="120.49" y="148.47" width="11.21" height="11.21"/><rect class="cls-3" x="120.49" y="137.26" width="11.21" height="11.21"/><rect class="cls-2" x="131.7" y="148.47" width="11.21" height="11.21"/><rect class="cls-2" x="142.92" y="148.47" width="11.21" height="11.21"/><rect class="cls-2" x="142.92" y="137.26" width="11.21" height="11.21"/><rect class="cls-2" x="120.49" y="128.08" width="33.64" height="9.22"/><rect class="cls-26" x="165.35" y="148.47" width="32.29" height="11.21"/><rect class="cls-26" x="186.42" y="159.68" width="11.21" height="44.86"/><rect class="cls-2" x="165.35" y="128.08" width="11.21" height="20.39"/><rect class="cls-26" x="175.21" y="139.29" width="11.21" height="11.21"/><rect class="cls-26" x="175.89" y="159.68" width="11.21" height="11.21"/><rect class="cls-26" x="175.21" y="128.08" width="11.21" height="11.21"/><rect class="cls-26" x="186.42" y="139.29" width="11.21" height="11.21"/></svg>